<svg width="370" height="105" viewBox="0 0 370 105" fill="none" xmlns="http://www.w3.org/2000/svg">
<path d="M53 29.5L3 101.5L52 66L95 101.5L53 29.5Z" fill="#FFDA79"/>
<path d="M140 29.5L95 101.5L146.5 66L204 101.5L140 29.5Z" fill="#FFDA79"/>
<path d="M204 101.5L246.5 29.5L309.5 101.5L244 4L204 101.5Z" fill="#FFDA79"/>
<path d="M326.5 29.5L309.5 101.5L328.5 55L366.5 101.5L326.5 29.5Z" fill="#FFDA79"/>
<path d="M3 101.5L53 29.5L95 101.5M3 101.5H366.5M3 101.5L52 66L95 101.5M95 101.5L140 29.5L204 101.5M95 101.5L146.5 66L204 101.5M204 101.5L246.5 29.5L309.5 101.5M204 101.5L244 4L309.5 101.5M309.5 101.5L326.5 29.5L366.5 101.5M309.5 101.5L328.5 55L366.5 101.5" stroke="black" stroke-width="3"/>
</svg>
