<svg width="1035" height="707" viewBox="0 0 1035 707" fill="none" xmlns="http://www.w3.org/2000/svg">
<rect width="1035" height="707" fill="white"/>
<g clip-path="url(#clip0)">
<path d="M947.25 569.2C947.25 570.92 947.25 572.64 947.14 574.34C946.884 580.957 946.088 587.542 944.76 594.03C938.19 626.14 919.22 651.1 895.39 658.47C890.65 659.946 885.714 660.698 880.75 660.7C844.02 660.7 814.25 619.7 814.25 569.2C814.25 518.7 844.02 477.7 880.75 477.7C915.2 477.7 943.54 513.76 946.91 559.95C947.14 562.99 947.25 566.08 947.25 569.2Z" fill="#36334A"/>
<path opacity="0.1" d="M947.14 574.35C946.884 580.967 946.088 587.552 944.76 594.04C938.19 626.15 919.22 651.11 895.39 658.48C876.94 649.99 863.25 618.17 863.25 580.21C863.25 535.75 882.05 499.71 905.25 499.71C924.72 499.71 941.1 525.13 945.85 559.62C946.51 564.35 946.94 569.29 947.14 574.35Z" fill="black"/>
<path d="M613.25 366.7C613.25 366.7 793.25 329.7 888.25 363.7C888.25 363.7 902.25 370.7 888.25 382.7C888.25 382.7 901.49 396.7 878.37 401.7L786.52 407.35L613.25 389.7V366.7Z" fill="#3F3D56"/>
<path opacity="0.1" d="M644.75 371.35C644.75 371.35 798.86 339.67 880.2 368.78C880.2 368.78 892.2 374.78 880.2 385.05C880.2 385.05 891.53 397.05 871.74 401.32L793.1 406.15L644.75 391.06V371.35Z" fill="black"/>
<path d="M820.25 426.7L808.25 402.7C808.25 402.7 813.51 378.42 770.75 371.28C768.38 360.69 757.64 352.7 744.75 352.7C732.17 352.7 721.65 360.3 718.93 370.5C712.79 371.03 706.25 371.75 699.25 372.7L689.47 425.14L688.25 422.7C688.25 422.7 694.46 394.02 638.49 389.83C641.541 386.132 643.222 381.494 643.25 376.7C643.25 363.99 631.38 353.7 616.75 353.7C602.12 353.7 590.25 363.99 590.25 376.7C590.288 381.921 592.271 386.941 595.81 390.78C590.577 391.28 585.057 391.92 579.25 392.7L568.25 451.7L619.25 458.7L700.25 446.7L693.08 432.35L739.25 438.69L820.25 426.7Z" fill="#6C63FF"/>
<path opacity="0.2" d="M820.25 426.7L808.25 402.7C808.25 402.7 813.51 378.42 770.75 371.28C768.38 360.69 757.64 352.7 744.75 352.7C732.17 352.7 721.65 360.3 718.93 370.5C712.79 371.03 706.25 371.75 699.25 372.7L689.47 425.14L688.25 422.7C688.25 422.7 694.46 394.02 638.49 389.83C641.541 386.132 643.222 381.494 643.25 376.7C643.25 363.99 631.38 353.7 616.75 353.7C602.12 353.7 590.25 363.99 590.25 376.7C590.288 381.921 592.271 386.941 595.81 390.78C590.577 391.28 585.057 391.92 579.25 392.7L568.25 451.7L619.25 458.7L700.25 446.7L693.08 432.35L739.25 438.69L820.25 426.7Z" fill="black"/>
<path d="M648.23 373.58C648.23 373.58 640.23 328.7 677.23 327.7C714.23 326.7 702.23 392.7 702.23 392.7C702.23 392.7 730.23 398.7 732.23 409.7C734.23 420.7 635.23 423.7 635.23 423.7L648.23 373.58Z" fill="#6C63FF"/>
<path d="M583.25 610.7C583.25 663.7 543.85 706.7 495.25 706.7C446.65 706.7 407.25 663.7 407.25 610.7C407.25 557.7 447.14 506.2 495.75 506.2C544.36 506.2 583.25 557.68 583.25 610.7Z" fill="#36334A"/>
<path opacity="0.1" d="M495.25 695.69C533.91 695.69 565.25 659.43 565.25 614.7C565.25 569.97 533.91 533.71 495.25 533.71C456.59 533.71 425.25 569.97 425.25 614.7C425.25 659.43 456.59 695.69 495.25 695.69Z" fill="black"/>
<path d="M108.25 697.69C156.851 697.69 196.25 654.709 196.25 601.69C196.25 548.671 156.851 505.69 108.25 505.69C59.6489 505.69 20.25 548.671 20.25 601.69C20.25 654.709 59.6489 697.69 108.25 697.69Z" fill="#36334A"/>
<path d="M258.25 372.7C258.25 372.7 217.25 374.7 219.25 396.7C221.25 418.7 254.25 402.7 254.25 402.7L258.25 372.7Z" fill="#36334A"/>
<path d="M599.37 409.35L616.25 296.7C616.25 296.7 620.25 282.7 566.25 282.7C566.25 282.7 393.25 271.7 349.25 289.7C349.25 289.7 298.25 308.7 227.25 406.7C227.25 406.7 592.37 415.35 599.37 409.35Z" fill="#3F3D56"/>
<path d="M593.25 291.7L562.25 414.7L542.81 414.23L450.81 411.99L245.62 406.99C245.05 397.27 342.22 296.7 342.22 296.7L593.25 291.7Z" fill="#36334A"/>
<path opacity="0.2" d="M450.84 411.99L459.22 379.59C459.22 379.59 451.22 334.7 488.22 333.7C525.22 332.7 513.22 398.7 513.22 398.7C513.22 398.7 538.72 404.17 542.78 414.23L450.84 411.99Z" fill="#6C63FF"/>
<path d="M947.75 562.2C941.75 504.2 904.25 491.7 904.25 491.7C868.25 489.7 844.25 626.7 844.25 626.7L567.25 651.7C567.25 651.7 576.75 535.2 509.75 516.2C442.75 497.2 425.25 633.7 422.25 652.7C419.25 671.7 18.25 650.7 7.25 642.7C-3.75 634.7 0.25 557.7 3.25 551.7C6.25 545.7 14.25 518.7 14.25 518.7C14.25 512.26 17.33 504.12 19.89 498.47C21.69 494.47 23.25 491.7 23.25 491.7C31.94 442.42 77.06 430.49 80.09 429.7H80.25C92.25 417.7 203.25 409.7 203.25 409.7L245.25 401.7L586.72 408.41L601.25 408.7L774.85 400.35L892.25 394.7C919.25 394.7 933.25 462.7 933.25 462.7C958.25 522.7 947.75 562.2 947.75 562.2Z" fill="#3F3D56"/>
<path opacity="0.1" d="M384.796 503.306C411.172 492.693 427.168 470.702 420.523 454.188C413.878 437.675 387.109 432.893 360.733 443.506C334.356 454.12 318.361 476.111 325.006 492.624C331.651 509.138 358.42 513.92 384.796 503.306Z" fill="black"/>
<path d="M382.798 499.302C409.174 488.688 425.169 466.697 418.524 450.184C411.879 433.671 385.11 428.888 358.734 439.502C332.358 450.116 316.362 472.107 323.007 488.62C329.652 505.134 356.421 509.916 382.798 499.302Z" fill="#F2F2F2"/>
<path opacity="0.1" d="M82.09 431.74C81.58 442.74 76.65 456.62 67.78 469.99C53.51 491.51 33.94 504.18 21.89 500.47C23.69 496.47 25.25 493.7 25.25 493.7C33.94 444.42 79.06 432.49 82.09 431.74Z" fill="black"/>
<path d="M79.09 429.74C78.58 440.74 73.65 454.62 64.78 467.99C50.51 489.51 30.94 502.18 18.89 498.47C20.69 494.47 22.25 491.7 22.25 491.7C30.94 442.42 76.06 430.49 79.09 429.74Z" fill="#F2F2F2"/>
<path d="M219.25 459.69H140.25L136.25 448.69H232.25L219.25 459.69Z" fill="#36334A"/>
<path d="M201.25 540.69H71.25V578.69H201.25V540.69Z" fill="#36334A"/>
<path opacity="0.1" d="M341.25 615.69C351.191 615.69 359.25 607.631 359.25 597.69C359.25 587.749 351.191 579.69 341.25 579.69C331.309 579.69 323.25 587.749 323.25 597.69C323.25 607.631 331.309 615.69 341.25 615.69Z" fill="black"/>
<path d="M339.25 612.69C349.191 612.69 357.25 604.631 357.25 594.69C357.25 584.749 349.191 576.69 339.25 576.69C329.309 576.69 321.25 584.749 321.25 594.69C321.25 604.631 329.309 612.69 339.25 612.69Z" fill="#F2F2F2"/>
<path opacity="0.1" d="M14.25 602.69C19.2206 602.69 23.25 594.183 23.25 583.69C23.25 573.197 19.2206 564.69 14.25 564.69C9.27944 564.69 5.25 573.197 5.25 583.69C5.25 594.183 9.27944 602.69 14.25 602.69Z" fill="black"/>
<path d="M11.25 601.69C16.2206 601.69 20.25 593.183 20.25 582.69C20.25 572.197 16.2206 563.69 11.25 563.69C6.27944 563.69 2.25 572.197 2.25 582.69C2.25 593.183 6.27944 601.69 11.25 601.69Z" fill="#F2F2F2"/>
<path d="M804.25 502.7C793.25 536.7 792.25 589.7 792.25 589.7L788.25 603.7L593.25 625.7C593.25 625.7 594.25 527.7 597.25 481.7C599.36 449.25 591.53 421.78 586.72 408.41L601.25 408.7L774.85 400.35C803.85 420.68 814.12 472.17 804.25 502.7Z" fill="#36334A"/>
<path d="M759.79 441.4C759.107 441.445 758.442 441.633 757.836 441.951C757.23 442.269 756.697 442.709 756.271 443.245C755.846 443.781 755.537 444.4 755.364 445.062C755.192 445.724 755.16 446.415 755.27 447.09C755.365 447.655 755.597 448.189 755.945 448.644C756.294 449.099 756.749 449.461 757.27 449.7C760.5 451.31 782 447.7 790.15 446.26C791.357 446.064 792.465 445.475 793.3 444.583C794.136 443.691 794.653 442.547 794.77 441.33C794.87 439.91 794.35 438.7 792.27 438.7L759.79 441.4Z" fill="#F2F2F2"/>
<path d="M586.25 404.7C586.25 404.7 591.25 426.7 615.25 419.7L623.25 388.7L607.25 379.7L586.25 404.7Z" fill="#36334A"/>
<path d="M615.64 360.03C626.64 353.51 644.09 347.81 661.35 361.5C664.943 364.337 667.477 368.299 668.545 372.75C669.613 377.201 669.154 381.882 667.24 386.04C661.59 398.27 648.18 411.54 616.87 395.65C613.797 394.09 611.173 391.77 609.25 388.91L609.09 388.67C607.575 386.379 606.541 383.804 606.05 381.102C605.559 378.399 605.622 375.625 606.234 372.948C606.846 370.27 607.996 367.745 609.613 365.525C611.229 363.304 613.28 361.435 615.64 360.03V360.03Z" fill="#36334A"/>
<path d="M495.75 630.19C506.796 630.19 515.75 621.236 515.75 610.19C515.75 599.144 506.796 590.19 495.75 590.19C484.704 590.19 475.75 599.144 475.75 610.19C475.75 621.236 484.704 630.19 495.75 630.19Z" fill="#F2F2F2"/>
<path d="M908.75 594.19C914.825 594.19 919.75 585.236 919.75 574.19C919.75 563.144 914.825 554.19 908.75 554.19C902.675 554.19 897.75 563.144 897.75 574.19C897.75 585.236 902.675 594.19 908.75 594.19Z" fill="#F2F2F2"/>
<path d="M496.25 548.69H494.25C487.623 548.69 482.25 554.063 482.25 560.69V571.69C482.25 578.317 487.623 583.69 494.25 583.69H496.25C502.877 583.69 508.25 578.317 508.25 571.69V560.69C508.25 554.063 502.877 548.69 496.25 548.69Z" fill="#36334A"/>
<path d="M908.75 510.19C909.669 510.19 910.579 510.371 911.429 510.723C912.278 511.075 913.05 511.59 913.7 512.24C914.35 512.89 914.865 513.662 915.217 514.511C915.569 515.361 915.75 516.271 915.75 517.19V533.19C915.75 536.373 914.486 539.425 912.235 541.675C909.985 543.926 906.933 545.19 903.75 545.19C901.893 545.19 900.113 544.453 898.8 543.14C897.487 541.827 896.75 540.047 896.75 538.19V522.19C896.75 519.007 898.014 515.955 900.265 513.705C902.515 511.454 905.567 510.19 908.75 510.19V510.19Z" fill="#36334A"/>
<path d="M908.75 638.2C905.567 638.2 902.515 636.936 900.265 634.685C898.014 632.435 896.75 629.383 896.75 626.2V615.2C896.75 612.017 898.014 608.965 900.265 606.715C902.515 604.464 905.567 603.2 908.75 603.2V603.2C915.35 603.2 914.75 608.6 914.75 615.2V626.2C914.74 632.8 915.37 638.2 908.75 638.2Z" fill="#36334A"/>
<path d="M878.75 556.19C881.933 556.19 884.985 557.454 887.235 559.705C889.486 561.955 890.75 565.007 890.75 568.19V583.19C890.75 585.312 889.907 587.347 888.407 588.847C886.907 590.347 884.872 591.19 882.75 591.19C879.567 591.19 876.515 589.926 874.265 587.675C872.014 585.425 870.75 582.373 870.75 579.19V564.19C870.75 562.068 871.593 560.033 873.093 558.533C874.593 557.033 876.628 556.19 878.75 556.19Z" fill="#36334A"/>
<path d="M947.25 569.2C947.25 570.92 947.25 572.64 947.14 574.34C946.884 580.957 946.088 587.542 944.76 594.03C944.099 594.141 943.43 594.198 942.76 594.2C939.577 594.2 936.525 592.936 934.275 590.685C932.024 588.435 930.76 585.383 930.76 582.2V571.2C930.76 568.017 932.024 564.965 934.275 562.715C936.525 560.464 939.577 559.2 942.76 559.2C943.807 559.197 944.85 559.335 945.86 559.61C946.22 559.71 946.58 559.82 946.92 559.95C947.14 562.99 947.25 566.08 947.25 569.2Z" fill="#36334A"/>
<path d="M546.75 591.19H544.75C538.123 591.19 532.75 596.563 532.75 603.19V614.19C532.75 620.817 538.123 626.19 544.75 626.19H546.75C553.377 626.19 558.75 620.817 558.75 614.19V603.19C558.75 596.563 553.377 591.19 546.75 591.19Z" fill="#36334A"/>
<path d="M448.75 591.19H446.75C440.123 591.19 434.75 596.563 434.75 603.19V614.19C434.75 620.817 440.123 626.19 446.75 626.19H448.75C455.377 626.19 460.75 620.817 460.75 614.19V603.19C460.75 596.563 455.377 591.19 448.75 591.19Z" fill="#36334A"/>
<path d="M496.75 643.19H494.75C488.123 643.19 482.75 648.563 482.75 655.19V666.19C482.75 672.817 488.123 678.19 494.75 678.19H496.75C503.377 678.19 508.75 672.817 508.75 666.19V655.19C508.75 648.563 503.377 643.19 496.75 643.19Z" fill="#36334A"/>
<path d="M845.01 206.01C845.004 207.917 844.665 209.809 844.01 211.6C842.87 214.783 840.785 217.541 838.034 219.507C835.283 221.473 831.998 222.552 828.618 222.6C825.237 222.647 821.922 221.662 819.117 219.775C816.312 217.888 814.15 215.189 812.92 212.04C812.166 210.129 811.779 208.094 811.78 206.04C811.78 201.637 813.529 197.415 816.642 194.302C819.755 191.189 823.977 189.44 828.38 189.44C832.783 189.44 837.005 191.189 840.118 194.302C843.231 197.415 844.98 201.637 844.98 206.04L845.01 206.01Z" fill="#FF6584"/>
<path d="M815.15 210.15C814.092 208.244 813.42 206.148 813.172 203.982C812.924 201.816 813.106 199.623 813.706 197.527C814.305 195.431 815.312 193.474 816.668 191.767C818.025 190.061 819.704 188.638 821.61 187.58C823.462 186.531 825.499 185.852 827.61 185.58C825.323 185.499 823.044 185.892 820.915 186.733C818.787 187.575 816.856 188.848 815.243 190.472C813.63 192.096 812.371 194.035 811.544 196.169C810.716 198.303 810.339 200.585 810.436 202.872C810.533 205.158 811.102 207.4 812.106 209.456C813.111 211.513 814.53 213.339 816.274 214.821C818.018 216.303 820.05 217.408 822.242 218.067C824.434 218.726 826.738 218.924 829.01 218.65C826.165 218.542 823.395 217.703 820.967 216.214C818.54 214.726 816.537 212.637 815.15 210.15V210.15Z" fill="#FF6584"/>
<path d="M852.13 229.13H807.66V298.5H852.13V229.13Z" fill="#FF6584"/>
<path opacity="0.1" d="M853.13 227.13H808.66V296.5H853.13V227.13Z" fill="black"/>
<path d="M737.37 480.81C737.37 480.81 732.63 493.81 721.37 495.63C710.11 497.45 703.61 500.35 703.61 500.35L730.29 517.54L744.52 515.76C744.52 515.76 746.29 497.38 752.22 493.23C758.15 489.08 737.37 480.81 737.37 480.81Z" fill="#FBBEBE"/>
<path d="M930.09 480.81C930.09 480.81 934.83 493.81 946.09 495.63C957.35 497.45 963.87 500.38 963.87 500.38L937.19 517.57L922.96 515.79C922.96 515.79 921.19 497.41 915.26 493.26C909.33 489.11 930.09 480.81 930.09 480.81Z" fill="#FBBEBE"/>
<path d="M800.25 365.79C800.25 365.79 793.13 369.35 790.76 376.46C790.76 376.46 777.76 380.61 770.6 391.88C770.6 391.88 761.71 401.36 760.52 406.11C759.33 410.86 745.7 439.35 745.7 439.35C745.7 439.35 732.07 483.81 724.95 488.56C724.95 488.56 747.48 483.81 751.63 506.34C751.63 506.34 756.97 506.34 762.9 485.59C768.83 464.84 783.05 439.35 783.05 439.35C783.05 439.35 787.8 421.56 791.95 418.6C796.1 415.64 802.62 402 808.55 405.55C814.48 409.1 853.61 404.96 853.61 404.96C853.61 404.96 876.73 415.63 877.32 422.75C877.91 429.87 882.07 430.45 882.66 436.38C883.25 442.31 905.19 489.15 905.19 489.15C905.19 489.15 909.34 502.15 910.52 505.15C910.52 505.15 923.57 473.73 940.76 491.51C940.76 491.51 940.17 479.65 934.83 472.51C929.49 465.37 906.37 409.66 906.37 409.66C906.37 409.66 904 401.36 901.63 398.99C899.26 396.62 880.88 377.65 874.37 377.65C874.37 377.65 870.81 368.75 866.66 367.57L800.25 365.79Z" fill="#696880"/>
<path d="M746.89 511.64C742.257 513.5 737.222 514.127 732.274 513.461C727.327 512.795 722.636 510.858 718.66 507.84C714.796 504.875 710.564 502.425 706.07 500.55C699.79 498.01 692.26 496.12 689.97 500.38C685.82 508.08 740.37 527.06 740.37 527.06C740.37 527.06 747.48 522.9 746.89 511.64Z" fill="#696880"/>
<path d="M920.6 511.64C925.233 513.5 930.268 514.127 935.216 513.461C940.163 512.795 944.854 510.858 948.83 507.84C952.693 504.875 956.926 502.425 961.42 500.55C967.7 498.01 975.23 496.12 977.52 500.38C981.67 508.08 927.12 527.06 927.12 527.06C927.12 527.06 920.01 522.9 920.6 511.64Z" fill="#696880"/>
<path d="M819.63 268.27C819.4 270.33 818.73 272.56 816.97 273.66C815.53 274.56 813.71 274.48 812.05 274.83C810.306 275.263 808.688 276.1 807.327 277.274C805.967 278.449 804.902 279.927 804.22 281.59C802.892 284.946 802.634 288.631 803.48 292.14C803.868 293.862 804.372 295.556 804.99 297.21C806.74 302.13 808.84 307 812.08 311.1C814.854 314.348 817.972 317.285 821.38 319.86C823.49 321.58 825.67 323.34 828.27 324.15C830.036 324.617 831.854 324.856 833.68 324.86C835.93 324.97 838.32 325.04 840.27 323.92C843.27 322.19 844.17 318.36 845.79 315.3C847.18 312.69 849.24 310.49 850.53 307.83C851.443 305.744 852.114 303.559 852.53 301.32L855.3 289.01C856.3 284.55 857.22 279.51 854.7 275.68C854.524 275.364 854.269 275.099 853.96 274.91C853.482 274.716 852.958 274.661 852.45 274.75C849.261 274.964 846.08 274.238 843.3 272.66C842.859 272.441 842.468 272.135 842.15 271.76C841.742 271.127 841.497 270.401 841.44 269.65C841.17 268.123 840.741 266.628 840.16 265.19C839.995 264.677 839.694 264.217 839.29 263.86C838.868 263.593 838.388 263.432 837.89 263.39C833.609 262.692 829.292 262.238 824.96 262.03C823.53 261.97 821.39 261.4 820.42 262.65C819.45 263.9 819.79 266.77 819.63 268.27Z" fill="#FBBEBE"/>
<path opacity="0.1" d="M819.63 268.27C819.4 270.33 818.73 272.56 816.97 273.66C815.53 274.56 813.71 274.48 812.05 274.83C810.306 275.263 808.688 276.1 807.327 277.274C805.967 278.449 804.902 279.927 804.22 281.59C802.892 284.946 802.634 288.631 803.48 292.14C803.868 293.862 804.372 295.556 804.99 297.21C806.74 302.13 808.84 307 812.08 311.1C814.854 314.348 817.972 317.285 821.38 319.86C823.49 321.58 825.67 323.34 828.27 324.15C830.036 324.617 831.854 324.856 833.68 324.86C835.93 324.97 838.32 325.04 840.27 323.92C843.27 322.19 844.17 318.36 845.79 315.3C847.18 312.69 849.24 310.49 850.53 307.83C851.443 305.744 852.114 303.559 852.53 301.32L855.3 289.01C856.3 284.55 857.22 279.51 854.7 275.68C854.524 275.364 854.269 275.099 853.96 274.91C853.482 274.716 852.958 274.661 852.45 274.75C849.261 274.964 846.08 274.238 843.3 272.66C842.859 272.441 842.468 272.135 842.15 271.76C841.742 271.127 841.497 270.401 841.44 269.65C841.17 268.123 840.741 266.628 840.16 265.19C839.995 264.677 839.694 264.217 839.29 263.86C838.868 263.593 838.388 263.432 837.89 263.39C833.609 262.692 829.292 262.238 824.96 262.03C823.53 261.97 821.39 261.4 820.42 262.65C819.45 263.9 819.79 266.77 819.63 268.27Z" fill="black"/>
<path d="M811.6 275.35C809.28 274.66 806.879 274.28 804.46 274.22C798.74 274.08 792.63 276.06 789.32 280.73C787.08 284.097 786.257 288.211 787.03 292.18C787.831 296.12 789.62 299.792 792.23 302.85C793.74 304.455 795.08 306.211 796.23 308.09C797.81 311.09 797.85 314.67 798.23 318.09C799.23 326.2 802.69 333.84 804.07 341.9C805.45 349.96 804.25 359.32 797.88 364.46C796.81 365.32 795.52 366.22 795.43 367.59C795.28 369.78 798.13 370.72 800.32 370.92C806.87 371.55 813.59 372.16 819.95 370.47C822.59 369.77 825.12 368.68 827.8 368.18C834.61 366.91 841.45 369.51 848.25 370.77C853.179 371.578 858.165 371.983 863.16 371.98C864.326 372.083 865.5 371.93 866.6 371.53C867.143 371.317 867.605 370.937 867.917 370.444C868.23 369.952 868.378 369.372 868.34 368.79C868.123 368.034 867.716 367.346 867.16 366.79C863.72 362.53 862.67 356.89 861.73 351.5L858.63 333.35C856.94 323.67 855.37 313.16 859.95 304.46C863.25 298.21 869.31 293.81 872.79 287.66C874.02 285.798 874.578 283.572 874.37 281.35C873.85 278.26 871.06 276.05 868.2 274.75C862.704 272.293 856.469 272.067 850.81 274.12C850.91 278.45 849.81 282.83 849.09 287.12L847.88 294.12C847.267 298.245 846.364 302.322 845.18 306.32C844.74 307.916 844.004 309.416 843.01 310.74C841.942 311.927 840.638 312.878 839.18 313.53C836.021 315.074 832.546 315.864 829.03 315.84C827.509 315.871 825.994 315.641 824.55 315.16C822.17 314.3 820.24 312.53 818.38 310.81C817.769 310.29 817.221 309.699 816.75 309.05C816.26 308.215 815.886 307.316 815.64 306.38C814.83 303.935 814.195 301.435 813.74 298.9C813.43 296.96 813.34 294.99 813.2 293.03C812.76 287.35 812.77 280.92 811.6 275.35Z" fill="#F2F2F2"/>
<path d="M805.58 390.1C805.58 390.1 803.21 421.52 818.03 426.86C832.85 432.2 819.81 400.77 819.81 400.77L815.07 391.28L805.58 390.1Z" fill="#FBBEBE"/>
<path d="M855.98 390.1C855.98 390.1 858.35 421.52 843.53 426.86C828.71 432.2 841.75 400.77 841.75 400.77L846.49 391.28L855.98 390.1Z" fill="#FBBEBE"/>
<path opacity="0.1" d="M792.54 285.16L787.8 292.87C787.8 292.87 791.95 319.55 792.54 324.29C793.048 327.704 793.841 331.069 794.91 334.35C794.91 334.35 795.5 348.58 795.5 353.91C795.5 359.24 798.5 368.14 798.5 368.14C798.916 373.181 799.923 378.155 801.5 382.96C803.87 389.49 806.25 397.19 806.25 397.19C806.25 397.19 809.25 388.89 821.07 401.34C822.392 399.995 823.132 398.185 823.132 396.3C823.132 394.415 822.392 392.605 821.07 391.26C821.07 391.26 817.51 375.26 817.51 366.96C817.51 358.66 810.99 318.96 810.99 318.96C810.99 318.96 806.77 273.89 792.54 285.16Z" fill="black"/>
<path d="M791.37 284.57L786.63 292.27C786.63 292.27 790.78 318.95 791.37 323.7C791.882 327.117 792.679 330.485 793.75 333.77C793.75 333.77 794.37 348 794.37 353.35C794.37 358.7 797.37 367.58 797.37 367.58C797.788 372.62 798.795 377.594 800.37 382.4C802.74 388.92 805.11 396.63 805.11 396.63C805.11 396.63 808.11 388.33 819.93 400.78C821.254 399.437 821.996 397.626 821.996 395.74C821.996 393.854 821.254 392.043 819.93 390.7C819.93 390.7 816.37 374.7 816.37 366.39C816.37 358.08 809.85 318.39 809.85 318.39C809.85 318.39 805.58 273.35 791.37 284.57Z" fill="#F2F2F2"/>
<path opacity="0.1" d="M869.61 280.41L872.61 283.94C872.61 283.94 876.11 304.13 868.4 329.62L866.03 352.75C866.03 352.75 861.88 372.31 861.28 377.06C860.68 381.81 860.69 382.39 859.51 384.17C859.147 384.585 858.947 385.118 858.947 385.67C858.947 386.222 859.147 386.755 859.51 387.17L855.95 400.22C855.95 400.22 850.61 393.7 839.95 402C839.95 402 836.95 397.25 839.36 393.1C841.77 388.95 841.73 387.17 841.14 385.99C840.55 384.81 843.51 378.87 843.51 377.69C843.51 376.51 847.66 349.23 847.66 349.23C847.66 349.23 849.44 322.55 851.22 313.66C852.31 308.19 852.28 295.99 852.1 287.41C851.91 278.48 862.72 273.63 869.1 279.92C869.27 280.05 869.44 280.23 869.61 280.41Z" fill="black"/>
<path d="M871.37 279.23L874.37 282.76C874.37 282.76 877.86 302.94 870.16 328.44L867.79 351.56C867.79 351.56 863.64 371.13 863.04 375.87C862.44 380.61 862.45 381.21 861.26 382.98C860.903 383.398 860.707 383.93 860.707 384.48C860.707 385.03 860.903 385.562 861.26 385.98L857.71 398.98C857.71 398.98 852.37 392.46 841.71 400.76C841.71 400.76 838.71 396.02 841.12 391.87C843.53 387.72 843.49 385.94 842.89 384.75C842.29 383.56 845.27 377.64 845.27 376.45C845.27 375.26 849.42 347.99 849.42 347.99C849.42 347.99 851.2 321.31 852.97 312.42C854.74 303.53 853.57 276.85 853.57 276.85C853.57 276.85 863.09 270.35 871.37 279.23Z" fill="#F2F2F2"/>
<path d="M831.67 270.93C844.77 270.93 855.39 260.31 855.39 247.21C855.39 234.11 844.77 223.49 831.67 223.49C818.57 223.49 807.95 234.11 807.95 247.21C807.95 260.31 818.57 270.93 831.67 270.93Z" fill="#FBBEBE"/>
<path opacity="0.1" d="M844.04 211.6C842.9 214.783 840.815 217.541 838.064 219.507C835.313 221.473 832.028 222.552 828.648 222.6C825.267 222.647 821.953 221.662 819.147 219.775C816.342 217.888 814.18 215.189 812.95 212.04C822.2 208.32 831.67 211.64 831.67 211.64C836.37 209.97 840.49 210.13 844.04 211.6Z" fill="black"/>
<path d="M831.67 212.83C831.67 212.83 786.02 196.83 797.28 274.49C797.28 274.49 807.36 281.01 815.07 276.86C815.07 276.86 809.73 222.86 830.48 225.28C851.23 227.7 847.68 275.67 847.68 275.67C847.68 275.67 859.54 279.23 863.09 272.67C866.64 266.11 861.91 202.15 831.67 212.83Z" fill="#FF6584"/>
<path opacity="0.1" d="M830.48 221.72C816.24 220.09 814.29 244.98 814.48 260.77C814.66 245.08 817.3 223.77 830.48 225.28C845.3 226.97 847.72 251.93 847.9 266.07C848.06 253.1 846.64 223.57 830.48 221.72Z" fill="black"/>
<path opacity="0.1" d="M797.28 270.93C796.251 264.115 795.659 257.241 795.51 250.35C795.46 258.418 796.052 266.476 797.28 274.45C797.28 274.45 807.36 280.97 815.07 276.82C815.07 276.82 814.94 275.54 814.8 273.39C807.13 277.35 797.28 270.93 797.28 270.93Z" fill="black"/>
<path opacity="0.1" d="M863.09 269.15C859.78 275.22 849.27 272.56 847.84 272.15C847.77 274.35 847.68 275.66 847.68 275.66C847.68 275.66 859.54 279.22 863.09 272.66C863.83 271.31 864.21 267.52 864.09 262.45C863.99 265.76 863.64 268.14 863.09 269.15Z" fill="black"/>
<path d="M984.66 652.89C987.4 647.82 984.29 641.6 980.72 637.08C977.15 632.56 972.79 627.85 972.88 622.08C973.02 613.8 981.81 608.91 988.88 604.52C994.094 601.259 998.905 597.392 1003.21 593C1005.01 591.308 1006.5 589.314 1007.61 587.11C1009.06 583.87 1009.02 580.18 1008.93 576.63C1008.63 564.81 1008.05 553 1007.18 541.2" stroke="#3F3D56" stroke-width="4" stroke-miterlimit="10"/>
<path d="M1020.48 540.56C1020.38 538.395 1019.74 536.29 1018.61 534.439C1017.48 532.588 1015.91 531.051 1014.03 529.97L1011.14 535.69L1011.23 528.76C1009.85 528.357 1008.41 528.184 1006.97 528.25C1004.42 528.369 1001.96 529.243 999.902 530.76C997.847 532.277 996.287 534.369 995.42 536.773C994.553 539.176 994.419 541.783 995.033 544.263C995.647 546.743 996.983 548.985 998.872 550.706C1000.76 552.427 1003.12 553.549 1005.64 553.931C1008.17 554.313 1010.75 553.937 1013.07 552.851C1015.38 551.765 1017.32 550.018 1018.64 547.83C1019.96 545.642 1020.6 543.112 1020.48 540.56Z" fill="#6C63FF"/>
<path d="M997.44 628.01C996.137 630.538 994.037 632.566 991.464 633.778C988.892 634.991 985.991 635.321 983.212 634.717C980.432 634.113 977.93 632.609 976.093 630.438C974.256 628.267 973.186 625.551 973.05 622.71C972.958 620.92 973.244 619.131 973.89 617.46C974.834 615.012 976.501 612.909 978.67 611.431C980.838 609.952 983.404 609.169 986.028 609.184C988.652 609.199 991.21 610.012 993.36 611.516C995.511 613.019 997.154 615.141 998.07 617.6L990 624.17L998.87 622.11C998.874 624.163 998.383 626.187 997.44 628.01V628.01Z" fill="#6C63FF"/>
<path d="M991.06 602.92C989.364 602.999 987.67 602.744 986.073 602.168C984.477 601.592 983.009 600.707 981.754 599.564C980.5 598.421 979.483 597.042 978.761 595.505C978.04 593.969 977.628 592.306 977.55 590.61C977.451 588.589 977.835 586.573 978.67 584.73C979.448 583.005 980.592 581.471 982.024 580.234C983.456 578.998 985.14 578.088 986.96 577.57L986.9 582.9L989.82 577.1C993.242 576.943 996.587 578.151 999.119 580.459C1001.65 582.768 1003.16 585.987 1003.32 589.41C1003.4 590.901 1003.21 592.394 1002.77 593.82C1001.99 596.356 1000.45 598.589 998.351 600.217C996.256 601.846 993.71 602.789 991.06 602.92V602.92Z" fill="#6C63FF"/>
<path d="M1022.43 582.05C1020.73 582.129 1019.04 581.874 1017.44 581.298C1015.85 580.722 1014.38 579.837 1013.12 578.694C1011.87 577.551 1010.85 576.172 1010.13 574.635C1009.41 573.099 1009 571.435 1008.92 569.74C1008.81 567.63 1009.23 565.527 1010.14 563.62C1010.9 562.016 1011.97 560.586 1013.31 559.417C1014.64 558.249 1016.2 557.367 1017.89 556.828C1019.58 556.288 1021.36 556.102 1023.12 556.282C1024.89 556.461 1026.59 557.002 1028.14 557.87L1025.86 564.12L1030.55 559.61C1033.07 561.914 1034.57 565.121 1034.73 568.53C1034.79 569.726 1034.68 570.925 1034.4 572.09C1033.76 574.826 1032.24 577.279 1030.08 579.076C1027.92 580.873 1025.24 581.917 1022.43 582.05V582.05Z" fill="#6C63FF"/>
<path opacity="0.1" d="M1018.75 544C1015.75 544.33 1012.86 545.25 1009.87 545.44C1006.88 545.63 1003.59 544.91 1001.7 542.58C1000.82 541.229 1000.02 539.827 999.31 538.38C998.493 537.107 997.377 536.053 996.06 535.31C995.04 537.301 994.56 539.525 994.67 541.76C994.811 544.898 996.089 547.877 998.267 550.14C1000.45 552.404 1003.37 553.796 1006.5 554.057C1009.63 554.318 1012.75 553.43 1015.27 551.559C1017.8 549.687 1019.55 546.961 1020.21 543.89C1019.72 543.91 1019.23 543.95 1018.75 544Z" fill="black"/>
<path opacity="0.1" d="M1022.43 582.05C1020.73 582.129 1019.04 581.874 1017.44 581.298C1015.85 580.722 1014.38 579.837 1013.12 578.694C1011.87 577.551 1010.85 576.172 1010.13 574.635C1009.41 573.099 1009 571.436 1008.92 569.74C1008.81 567.63 1009.23 565.527 1010.14 563.62C1011.17 564.311 1012.05 565.194 1012.74 566.22C1013.66 567.61 1014.21 569.22 1015.3 570.49C1017.3 572.85 1020.75 573.63 1023.87 573.49C1026.99 573.35 1029.99 572.49 1033.1 572.18C1033.53 572.18 1033.97 572.11 1034.4 572.1C1033.76 574.834 1032.24 577.284 1030.08 579.08C1027.92 580.875 1025.24 581.918 1022.43 582.05V582.05Z" fill="black"/>
<path opacity="0.1" d="M991.06 602.92C989.364 602.999 987.67 602.744 986.073 602.168C984.477 601.592 983.009 600.707 981.754 599.564C980.5 598.421 979.483 597.042 978.761 595.505C978.04 593.969 977.628 592.306 977.55 590.61C977.451 588.589 977.835 586.573 978.67 584.73C979.718 585.436 980.633 586.323 981.37 587.35C982.37 588.77 983 590.35 984.17 591.71C986.35 594.14 990.02 594.99 993.32 594.92C996.62 594.85 999.6 594.06 1002.78 593.82C1002 596.357 1000.45 598.592 998.357 600.22C996.26 601.848 993.712 602.791 991.06 602.92V602.92Z" fill="black"/>
<path opacity="0.1" d="M997.44 628.01C996.137 630.538 994.037 632.566 991.464 633.778C988.892 634.991 985.991 635.321 983.212 634.717C980.432 634.113 977.93 632.609 976.093 630.438C974.256 628.267 973.186 625.551 973.05 622.71C972.958 620.92 973.244 619.131 973.89 617.46C974.952 618.16 975.905 619.013 976.72 619.99C977.95 621.49 978.72 623.19 980.18 624.58C982.82 627.18 987.09 628.25 990.88 628.35C993.071 628.363 995.262 628.249 997.44 628.01V628.01Z" fill="black"/>
<path d="M965.18 647.05C965.18 647.05 975.37 646.74 978.45 644.55C981.53 642.36 994.13 639.75 994.9 643.26C995.67 646.77 1010.22 660.72 998.71 660.81C987.2 660.9 971.96 659.02 968.89 657.15C965.82 655.28 965.18 647.05 965.18 647.05Z" fill="#656380"/>
<path opacity="0.2" d="M998.91 659.59C987.4 659.68 972.16 657.79 969.09 655.93C966.76 654.5 965.83 649.4 965.52 647.04H965.18C965.18 647.04 965.82 655.27 968.89 657.14C971.96 659.01 987.2 660.89 998.71 660.8C1002.03 660.8 1003.18 659.59 1003.12 657.8C1002.66 658.91 1001.37 659.57 998.91 659.59Z" fill="black"/>
</g>
<defs>
<clipPath id="clip0">
<rect width="1034.75" height="706.69" fill="white"/>
</clipPath>
</defs>
</svg>
